<svg id="efNWl3LMSq81" xmlns="http://www.w3.org/2000/svg" xmlns:xlink="http://www.w3.org/1999/xlink" viewBox="0 0 512 512" shape-rendering="geometricPrecision" text-rendering="geometricPrecision"><defs><linearGradient id="efNWl3LMSq85-fill" x1="0" y1="0.5" x2="1" y2="0.5" spreadMethod="pad" gradientUnits="objectBoundingBox" gradientTransform="translate(0 0)"><stop id="efNWl3LMSq85-fill-0" offset="0%" stop-color="#ffb300"/><stop id="efNWl3LMSq85-fill-1" offset="100%" stop-color="#ffe905"/></linearGradient><linearGradient id="efNWl3LMSq86-fill" x1="0" y1="0.5" x2="1" y2="0.5" spreadMethod="pad" gradientUnits="objectBoundingBox" gradientTransform="translate(0 0)"><stop id="efNWl3LMSq86-fill-0" offset="0%" stop-color="#ffb300"/><stop id="efNWl3LMSq86-fill-1" offset="100%" stop-color="#ffe905"/></linearGradient><linearGradient id="efNWl3LMSq87-fill" x1="0" y1="0.5" x2="1" y2="0.5" spreadMethod="pad" gradientUnits="objectBoundingBox" gradientTransform="translate(0 0)"><stop id="efNWl3LMSq87-fill-0" offset="0%" stop-color="#ffb300"/><stop id="efNWl3LMSq87-fill-1" offset="100%" stop-color="#ffe905"/></linearGradient><linearGradient id="efNWl3LMSq813-fill" x1="0.1089" y1="0.956472" x2="0.720135" y2="-0.14985" spreadMethod="pad" gradientUnits="objectBoundingBox" gradientTransform="translate(0 0)"><stop id="efNWl3LMSq813-fill-0" offset="0%" stop-color="#6abdfc"/><stop id="efNWl3LMSq813-fill-1" offset="17%" stop-color="#2d94dc"/></linearGradient><linearGradient id="efNWl3LMSq813-stroke" x1="0.258359" y1="0.937732" x2="0.741641" y2="0.062268" spreadMethod="pad" gradientUnits="objectBoundingBox" gradientTransform="translate(0 0)"><stop id="efNWl3LMSq813-stroke-0" offset="0%" stop-color="#6abdfc"/><stop id="efNWl3LMSq813-stroke-1" offset="100%" stop-color="#2d94dc"/></linearGradient><linearGradient id="efNWl3LMSq814-fill" x1="0.1089" y1="0.956472" x2="0.788938" y2="-0.17735" spreadMethod="pad" gradientUnits="objectBoundingBox" gradientTransform="translate(0 0)"><stop id="efNWl3LMSq814-fill-0" offset="5%" stop-color="#ed6363"/><stop id="efNWl3LMSq814-fill-1" offset="44%" stop-color="#e24747"/></linearGradient><linearGradient id="efNWl3LMSq814-stroke" x1="0.242481" y1="0.928584" x2="0.757519" y2="0.071416" spreadMethod="pad" gradientUnits="objectBoundingBox" gradientTransform="translate(0 0)"><stop id="efNWl3LMSq814-stroke-0" offset="0%" stop-color="#ed6363"/><stop id="efNWl3LMSq814-stroke-1" offset="100%" stop-color="#e24747"/></linearGradient><linearGradient id="efNWl3LMSq815-fill" x1="0.713307" y1="0.094748" x2="0.086208" y2="0.980274" spreadMethod="pad" gradientUnits="objectBoundingBox" gradientTransform="translate(0 0)"><stop id="efNWl3LMSq815-fill-0" offset="0%" stop-color="#2fa038"/><stop id="efNWl3LMSq815-fill-1" offset="62%" stop-color="#6ad572"/></linearGradient><linearGradient id="efNWl3LMSq815-stroke" x1="0.788929" y1="0.091931" x2="0.211071" y2="0.908069" spreadMethod="pad" gradientUnits="objectBoundingBox" gradientTransform="translate(0 0)"><stop id="efNWl3LMSq815-stroke-0" offset="0%" stop-color="#2fa038"/><stop id="efNWl3LMSq815-stroke-1" offset="100%" stop-color="#6ad572"/></linearGradient></defs><g transform="translate(.000001 0.000001)"><path style="mix-blend-mode:color;isolation:isolate" d="M335.87664,45.27888c-6.16996,23.96201-6.16996,23.96201,22.57126,39.41295c27.41524,15.45193,90.2338,89.27345,109.71185,129.68694c19.92005,40.41316,47.62949,123.6964,44.10176,134.67951-5.73433,15.47678-24.98452,14.0416-46.6486,5.57294q-24.75879-9.46457-115.76077-1.14116-71.23909-47.13256-76.54414-48.62592c-11.49522-4.48339-44.99063,123.81356-49.83909,141.78523-11.01731,43.43102-23.72427,60.09853-47.58934,63.61021-15.90992,2.50749-15.25932,5.16074-29.41361-8.80379-14.15392-13.46542-17.03292-19.99686-19.23544-37.79238-2.05941-16.63921,6.609515-34.905962,22.019445-41.306862c13.20365-6.03169,25.303625,17.070746,26.629605,17.069746c5.30393-.00398,43.50964-128.532384,43.49654-146.001304-.00823-10.98046-1.33459-11.47858-34.92615-11.4534-44.19942.03313-184.31404-100.28108-184.31965-107.76776-.00524-6.98757,18.02692-29.36345,40.11205-48.84538c22.52674-19.98138,68.91631-46.4691,106.03298-60.97118c30.93062-12.00188,42.42135-13.50783,91.92433-14.04405l56.13327-.04208l5.28934-19.46934c2.64411-10.48334,8.82342-21.96755,13.68237-25.96409c18.99453-14.98761,31.3872,7.46316,22.57201,40.41117h-.00002Zm-9.5531-40.28283c-2.20997.00166-8.14612,14.34226-12.55559,28.32071-3.9671,14.47723-8.37582,29.4539-9.69955,32.44957-.88137,3.49445.88885,6.48779,4.42481,6.48514c3.97795-.00298,9.27365-10.98742,13.67937-29.95699c4.4076-16.47401,6.51793-32.93982,6.51681-34.43716s-.15587-2.86293-2.36584-2.86128l-.00001.00001ZM167.50077,77.34828c-40.2125,12.00884-88.81166,38.99733-127.68284,71.46876L9.33941,174.29461l18.56638,3.47987c10.60973,2.48761,27.852,8.46403,38.46398,13.94631c22.54994,10.96357,58.37804,46.37368,62.8092,61.34372c2.21596,7.98413,6.393115,1.412216,20.070995-30.541224C172.193635,169.101076,213.50148,121.73478,260.77428,94.24817c31.36812-17.99155,32.69298-19.48988,21.64088-22.47627-25.19854-6.46957-83.53991-3.93028-114.91439,5.57637v.00001Zm136.57997,4.88874c-1.76798.00133-16.78942,8.49749-34.01934,18.99177-42.85399,25.98596-89.2241,78.4275-109.96341,124.36138-8.82492,19.9711-15.88411,36.94621-15.88373,37.44532.00075.99822,22.54283,1.48044,49.94647,1.4599c45.52541-.03413,51.71445,1.45857,75.59187,14.41759c14.1498,7.97519,36.26149,23.93021,49.0883,35.89928c28.30709,25.93262,28.74871,25.43317,31.78954-45.44304c3.04981-58.89753-4.05016-96.32563-27.959-151.21005-8.41248-19.45907-16.82272-35.92347-18.5907-35.92215Zm16.79803,2.98208c.00075.99822,5.75752,15.46816,12.84103,30.93533c25.67832,56.87955,35.00622,118.26336,27.53459,174.66864-2.63775,18.96824-6.15911,38.43626-7.48173,42.92926-2.64673,6.98956-1.32074,6.98856,14.14382-.0106c24.74307-11.49813,85.74127-7.55096,111.38779,6.90407c10.17073,6.48084,18.57087,9.46921,18.56937,7.47276-.00561-7.48668-26.14164-85.3286-35.43961-106.78345-15.93836-35.42502-46.47038-81.32046-69.91366-104.76116-19.90471-19.94957-71.64609-57.3442-71.6416-51.35486v.00001ZM245.88341,276.93442c-2.20997.00166-11.91327,27.4601-21.61207,60.90789-38.35361,133.29172-43.20656,145.27405-59.12023,142.79042-11.49335-1.98783-2.68601-45.4172-4.45511-46.91321-4.86605-5.48659-16.35192,2.50782-21.2045,14.98926-7.94168,18.97222-1.2983,36.93528,15.94659,46.40548c15.03379,7.97453,15.91778,7.97386,27.84414-2.01732c11.48474-9.49174,29.13421-49.93306,33.09233-76.38898c1.32074-6.98856,9.25307-38.43858,18.06901-70.38837c8.81631-31.45068,15.86652-60.40447,15.86428-63.39915-.00262-3.49378-1.77247-5.98802-4.42443-5.98603l-.00001.00001Z" transform="translate(.02 0)" fill="none" stroke="#000" stroke-width="0" stroke-dashoffset="10113.5" stroke-dasharray="10113.5"/></g><g transform="matrix(.999999 0 0 1.065204 3.040068-30.443138)"><polygon points="-118.009701,-174.036117 -42.717574,-72.43344 -0.221083,-8.634336 5.603242,3.356962 6.325514,5.669861 5.14007,7.220372 3.289851,7.458614 1.218529,7.707827 -1.297186,5.784457 -5.840283,1.321851 -90.056171,-107.695956 -118.009701,-174.036117" transform="matrix(-.607368-.794421 0.794421-.607368 253.418136 282.259773)" fill="url(#efNWl3LMSq85-fill)" stroke-width="0"/><polygon points="-113.158601,-173.426992 -42.717574,-72.43344 -0.221083,-8.634336 5.603242,3.356962 6.325514,5.669861 5.14007,7.220372 3.289851,7.458614 1.218529,7.707827 -1.297186,5.784457 -5.840283,1.321851 -91.458143,-105.861852 -113.158601,-173.426992" transform="matrix(-.609935-.797779 0.776629-.593765 253.038023 285.319395)" fill="url(#efNWl3LMSq86-fill)" stroke-width="0"/><polygon points="-113.158601,-173.426992 -42.717574,-72.43344 -0.221083,-8.634336 5.14007,7.220372 -5.840283,1.321851 -91.458143,-105.861852 -113.158601,-173.426992" transform="matrix(-.607368-.794421 0.794421-.607368 318.580206 54.253038)" fill="url(#efNWl3LMSq87-fill)" stroke-width="0"/></g><g transform="matrix(.997039 0 0 1.036647 7.504881-1.61488)"><polygon points="5.532466,-140.60458 11.204304,-136.714383 135.437721,-104.656962 153.95504,-108.473905 100.749354,-7.392588 50.817942,37.899788 27.196077,55.015779 -12.408693,77.949491 -46.749589,88.1228 -53.076746,89.73158 -59.019452,90.786055 -65.536186,86.725019 -63.677873,83.231995 -31.718392,31.408154 -4.340718,-27.131422 -3.368373,-30.717841 -3.033871,-29.911613 -3.033866,-29.911609 -1.955276,-30.359105 -3.033871,-29.911613 -3.368366,-30.717843 5.532466,-140.60458" transform="matrix(-.985738-.408977 0.403551-.972661 193.13 133.01)" fill="#232323" stroke="#232323"/><polygon points="1.564565,-159.679857 6.769548,-154.856068 69.386379,-137.694632 109.139334,-136.138253 146.251675,-145.37586 111.108623,-70.836097 79.06731,-19.85321 38.059453,26.534887 12.13044,49.205555 -46.749589,88.1228 -53.076746,89.73158 -59.019452,90.786055 -64.970467,90.958975 -85.523651,103.021483 -65.979026,90.126414 -65.979024,90.126414 -68.765985,85.65139 -63.677873,83.231995 -31.718392,31.408154 -14.345332,-14.645883 -9.129276,-27.561828 0.911155,-155.093073 1.564565,-159.679857" transform="matrix(.990015 0.140963 0.140963-.990015 373.595 183.578)" fill="#232323" stroke="#232323" stroke-width="3.5"/><polygon points="19.59655,-104.702857 41.035649,-77.161925 149.175882,-49.204733 72.866208,39.348286 12.820381,71.873063 -50.223673,96.119219 -61.718238,99.790638 -66.270229,99.58353 -66.270202,99.583427 -74.358981,84.367344 -87.792517,12.956278 -83.147516,-36.685178 -83.852989,-49.614766 -75.441778,-82.149831 -58.266092,-125.281 -42.483394,-176.26467 -33.906329,-166.902869 19.59655,-104.702857" transform="matrix(-.968169 0.250298-.250298-.968169 264.866 182.531)" fill="#232323" stroke="#232323" stroke-width="2.5"/></g><g transform="matrix(.999976 0.006918-.006918 0.999976 6.646833-1.825192)"><polygon points="6.048258,-142.814933 10.372216,-141.82753 83.26093,-104.079785 135.437721,-104.656962 154.42142,-108.705639 105.094158,-10.246012 52.840263,38.46012 27.954783,57.402375 -14.105772,81.567521 -51.05163,92.479866 -57.388463,94.009191 -77.736707,102.112689 -93.141046,95.456097 -65.536186,86.725019 -63.677873,83.231995 -31.718392,31.408154 -4.340718,-27.131422 -3.368373,-30.717841 -3.033871,-29.911613 -3.033866,-29.911609 -1.955276,-30.359105 -3.033871,-29.911613 -3.368366,-30.717843 6.048258,-142.814933" transform="matrix(-.923657-.38322 0.38322-.923657 193.13 133.01)" fill="url(#efNWl3LMSq813-fill)" stroke="url(#efNWl3LMSq813-stroke)"/><polygon points="1.119832,-156.558658 3.102862,-156.90765 6.769548,-154.856068 15.567046,-149.472209 71.689109,-137.985747 109.139334,-136.138253 146.251675,-145.37586 111.108623,-70.836097 79.06731,-19.85321 38.059453,26.534887 12.13044,49.205555 -46.186816,86.18063 -79.965488,99.628753 -31.718392,31.408154 -14.345332,-14.645883 -9.129276,-27.561828 0.911155,-155.093073 1.119832,-156.558658" transform="matrix(.989549 0.140897 0.143066-1.004785 373.595 183.578)" fill="url(#efNWl3LMSq814-fill)" stroke="url(#efNWl3LMSq814-stroke)" stroke-width="3.5"/><polygon points="12.809507,-101.661777 36.571318,-80.238814 145.595076,-44.466565 72.866208,39.348286 12.820381,71.873063 -50.223673,96.119219 -61.718238,99.790638 -66.372473,100.114941 -74.358981,84.367344 -87.792517,12.956278 -83.147516,-36.685178 -83.852989,-49.614766 -75.441778,-82.149831 -58.266092,-125.281 -42.484137,-173.832181 -33.942773,-164.957585 12.809507,-101.661777" transform="matrix(-.968169 0.250298-.250298-.968169 264.866 182.531)" fill="url(#efNWl3LMSq815-fill)" stroke="url(#efNWl3LMSq815-stroke)" stroke-width="2.5"/></g></svg>
