<svg id="visual" viewBox="0 0 900 600" width="900" height="600" xmlns="http://www.w3.org/2000/svg" xmlns:xlink="http://www.w3.org/1999/xlink" version="1.1"><path d="M0 223L37.5 202C75 181 150 139 225 131C300 123 375 149 450 172C525 195 600 215 675 217C750 219 825 203 862.5 195L900 187L900 0L862.5 0C825 0 750 0 675 0C600 0 525 0 450 0C375 0 300 0 225 0C150 0 75 0 37.5 0L0 0Z" fill="#d5ccfa"></path><path d="M0 295L37.5 279C75 263 150 231 225 223C300 215 375 231 450 244C525 257 600 267 675 268C750 269 825 261 862.5 257L900 253L900 185L862.5 193C825 201 750 217 675 215C600 213 525 193 450 170C375 147 300 121 225 129C150 137 75 179 37.5 200L0 221Z" fill="#bcaff5"></path><path d="M0 367L37.5 373C75 379 150 391 225 402C300 413 375 423 450 429C525 435 600 437 675 425C750 413 825 387 862.5 374L900 361L900 251L862.5 255C825 259 750 267 675 266C600 265 525 255 450 242C375 229 300 213 225 221C150 229 75 261 37.5 277L0 293Z" fill="#a393f0"></path><path d="M0 463L37.5 464C75 465 150 467 225 476C300 485 375 501 450 514C525 527 600 537 675 525C750 513 825 479 862.5 462L900 445L900 359L862.5 372C825 385 750 411 675 423C600 435 525 433 450 427C375 421 300 411 225 400C150 389 75 377 37.5 371L0 365Z" fill="#8878ea"></path><path d="M0 601L37.5 601C75 601 150 601 225 601C300 601 375 601 450 601C525 601 600 601 675 601C750 601 825 601 862.5 601L900 601L900 443L862.5 460C825 477 750 511 675 523C600 535 525 525 450 512C375 499 300 483 225 474C150 465 75 463 37.5 462L0 461Z" fill="#695de3"></path></svg>