# Blender 3.3.1
# www.blender.org
mtllib rightleg.mtl
o RightLeg
v 1.522257 -1.493785 0.891790
v 1.422257 -1.493785 0.991790
v 1.422257 -1.593785 0.891790
v 1.522257 2.306215 0.891790
v 1.422257 2.406215 0.891790
v 1.422257 2.306215 0.991790
v -0.477743 -1.493785 0.891790
v -0.377743 -1.593785 0.891790
v -0.377743 -1.493785 0.991790
v -0.377743 2.406215 0.891790
v -0.477743 2.306215 0.891790
v -0.377743 2.306215 0.991790
v 1.522257 -1.493785 -0.908210
v 1.422257 -1.593785 -0.908210
v 1.422257 -1.493785 -1.008210
v 1.422257 2.406215 -0.908210
v 1.522257 2.306215 -0.908210
v 1.422257 2.306215 -1.008210
v -0.377743 -1.493785 -1.008210
v -0.377743 -1.593785 -0.908210
v -0.477743 -1.493785 -0.908210
v -0.377743 2.406215 -0.908210
v -0.377743 2.306215 -1.008210
v -0.477743 2.306215 -0.908210
vn -0.0000 -1.0000 -0.0000
vn -0.0000 -0.0000 -1.0000
vn -0.0000 -0.0000 1.0000
vn -0.0000 1.0000 -0.0000
vn -1.0000 -0.0000 -0.0000
vn 0.5773 -0.5774 0.5774
vn 0.5773 0.5773 0.5774
vn -0.5774 -0.5774 0.5774
vn -0.5774 0.5773 0.5774
vn 0.5774 -0.5774 -0.5774
vn 0.5774 0.5773 -0.5774
vn -0.5773 -0.5774 -0.5774
vn -0.5773 0.5773 -0.5774
vn 0.7071 -0.0000 0.7071
vn -0.0000 0.7071 0.7071
vn -0.7071 -0.0000 0.7071
vn -0.0000 -0.7071 0.7071
vn -0.7071 0.7071 -0.0000
vn -0.7071 -0.0000 -0.7071
vn -0.7071 -0.7071 -0.0000
vn -0.0000 0.7071 -0.7071
vn 0.7071 -0.0000 -0.7071
vn -0.0000 -0.7071 -0.7071
vn 0.7071 0.7071 -0.0000
vn 0.7071 -0.7071 -0.0000
vn 1.0000 -0.0000 -0.0000
vt 0.630594 0.156402
vt 0.527456 0.179800
vt 0.960629 0.179801
vt 0.522013 0.179800
vt 0.625152 0.161844
vt 0.625152 0.156402
vt 0.630594 0.409028
vt 0.527456 0.386605
vt 0.625152 0.409028
vt 0.960629 0.386605
vt 0.522013 0.386605
vt 0.625152 0.403585
vt 0.858815 0.179801
vt 0.521750 0.156402
vt 0.527192 0.156402
vt 0.876731 0.179801
vt 0.864258 0.179801
vt 0.527192 0.161844
vt 0.527192 0.409028
vt 0.858815 0.386605
vt 0.521750 0.409028
vt 0.876731 0.386605
vt 0.527192 0.403586
vt 0.864258 0.386605
vt 0.638673 0.179801
vt 0.630594 0.058442
vt 0.625416 0.179800
vt 0.625152 0.058442
vt 0.644115 0.179801
vt 0.625152 0.053000
vt 0.625152 0.506988
vt 0.638673 0.386606
vt 0.630594 0.506988
vt 0.625416 0.386605
vt 0.625152 0.512430
vt 0.644115 0.386606
vt 0.742076 0.179801
vt 0.527192 0.053000
vt 0.527192 0.058442
vt 0.760855 0.179801
vt 0.747518 0.179801
vt 0.521750 0.058442
vt 0.527192 0.506988
vt 0.742076 0.386606
vt 0.527192 0.512430
vt 0.760855 0.386605
vt 0.521750 0.506988
vt 0.747518 0.386606
s 0
usemtl RightLegMat
f 3/6/1 8/15/1 20/39/1 14/28/1
f 23/44/2 18/36/2 15/29/2 19/37/2
f 6/10/3 12/22/3 9/16/3 2/3/3
f 16/31/4 22/43/4 10/19/4 5/9/4
f 11/20/5 24/46/5 21/40/5 7/13/5
f 1/1/6 2/5/6 3/6/6
f 4/7/7 5/9/7 6/12/7
f 7/14/8 8/15/8 9/18/8
f 10/19/9 11/21/9 12/23/9
f 13/26/10 14/28/10 15/30/10
f 16/31/11 17/33/11 18/35/11
f 19/38/12 20/39/12 21/42/12
f 22/43/13 23/45/13 24/47/13
f 1/2/14 4/8/14 6/11/14 2/4/14
f 5/9/15 10/19/15 12/23/15 6/12/15
f 11/20/16 7/13/16 9/17/16 12/24/16
f 8/15/17 3/6/17 2/5/17 9/18/17
f 10/19/18 22/43/18 24/47/18 11/21/18
f 23/44/19 19/37/19 21/41/19 24/48/19
f 20/39/20 8/15/20 7/14/20 21/42/20
f 22/43/21 16/31/21 18/35/21 23/45/21
f 17/32/22 13/25/22 15/29/22 18/36/22
f 14/28/23 20/39/23 19/38/23 15/30/23
f 16/31/24 5/9/24 4/7/24 17/33/24
f 3/6/25 14/28/25 13/26/25 1/1/25
f 17/34/26 4/8/26 1/2/26 13/27/26
