# Blender 3.3.1
# www.blender.org
mtllib torso.mtl
o Torso
v 1.522257 2.376213 0.891790
v 1.422257 2.376213 0.991790
v 1.422257 2.276213 0.891790
v 1.522257 6.176213 0.891790
v 1.422257 6.276213 0.891790
v 1.422257 6.176213 0.991790
v -2.477743 2.376213 0.891790
v -2.377743 2.276213 0.891790
v -2.377743 2.376213 0.991790
v -2.377743 6.276213 0.891790
v -2.477743 6.176213 0.891790
v -2.377743 6.176213 0.991790
v 1.522257 2.376213 -0.908210
v 1.422257 2.276213 -0.908210
v 1.422257 2.376213 -1.008210
v 1.422257 6.276213 -0.908210
v 1.522257 6.176213 -0.908210
v 1.422257 6.176213 -1.008210
v -2.377743 2.376213 -1.008210
v -2.377743 2.276213 -0.908210
v -2.477742 2.376213 -0.908210
v -2.377743 6.276213 -0.908210
v -2.377743 6.176213 -1.008210
v -2.477742 6.176213 -0.908210
vn -0.0000 -1.0000 -0.0000
vn -0.0000 -0.0000 -1.0000
vn -0.0000 -0.0000 1.0000
vn -0.0000 1.0000 -0.0000
vn -1.0000 -0.0000 -0.0000
vn 0.5773 -0.5774 0.5774
vn 0.5773 0.5774 0.5774
vn -0.5773 -0.5774 0.5774
vn -0.5773 0.5774 0.5774
vn 0.5773 -0.5774 -0.5774
vn 0.5773 0.5774 -0.5774
vn -0.5773 -0.5774 -0.5774
vn -0.5773 0.5774 -0.5774
vn 0.7071 -0.0000 0.7071
vn -0.0000 0.7071 0.7071
vn -0.7071 -0.0000 0.7071
vn -0.0000 -0.7071 0.7071
vn -0.7071 0.7071 -0.0000
vn -0.7071 -0.0000 -0.7071
vn -0.7071 -0.7071 -0.0000
vn -0.0000 0.7071 -0.7071
vn 0.7071 -0.0000 -0.7071
vn -0.0000 -0.7071 -0.7071
vn 0.7071 0.7071 -0.0000
vn 0.7071 -0.7071 -0.0000
vn 1.0000 -0.0000 -0.0000
vt 0.016949 0.000000
vt 0.604626 0.631407
vt 0.694915 0.000000
vt 0.016949 0.016949
vt 0.599183 0.636850
vt 0.599183 0.631407
vt 0.661017 0.000000
vt 0.694915 0.455425
vt 0.677966 0.016949
vt 0.694915 0.479394
vt 0.677966 0.467410
vt 0.661017 0.016949
vt 0.367020 0.655281
vt 0.016949 0.677966
vt 0.386912 0.631407
vt 0.000000 0.661017
vt 0.392355 0.631407
vt 0.016949 0.661017
vt 0.392355 0.636850
vt 0.694915 0.934819
vt 0.677966 0.661017
vt 0.023970 0.677966
vt 0.367020 0.862110
vt 0.661017 0.677966
vt 0.000000 0.677966
vt 0.661017 0.661017
vt 0.739451 0.655282
vt 0.604626 0.533436
vt 1.000000 0.000000
vt 0.599183 0.533436
vt 0.744894 0.655281
vt 0.599183 0.527993
vt 0.599183 0.983785
vt 1.000000 0.479394
vt 0.604626 0.983786
vt 0.739451 0.862110
vt 1.000000 0.455425
vt 0.599183 0.989228
vt 0.744894 0.862110
vt 0.951722 0.655281
vt 0.392355 0.527993
vt 0.392355 0.533436
vt 0.269049 0.655281
vt 0.957165 0.655282
vt 0.386912 0.533436
vt 1.000000 0.934819
vt 0.023970 0.927067
vt 0.392355 0.983785
vt 0.011985 0.947825
vt 0.951722 0.862110
vt 0.392355 0.989228
vt 0.269049 0.862110
vt 0.000000 0.927067
vt 0.957165 0.862110
s 0
usemtl TorsoMat
f 3/6/1 8/17/1 20/42/1 14/30/1
f 23/50/2 18/39/2 15/31/2 19/40/2
f 6/12/3 12/26/3 9/18/3 2/4/3
f 16/34/4 22/46/4 10/20/4 5/10/4
f 11/23/5 24/52/5 21/43/5 7/13/5
f 1/2/6 2/5/6 3/6/6
f 4/8/7 5/10/7 6/11/7
f 7/14/8 8/16/8 9/18/8
f 10/21/9 11/24/9 12/26/9
f 13/28/10 14/30/10 15/32/10
f 16/33/11 17/35/11 18/38/11
f 19/41/12 20/42/12 21/45/12
f 22/47/13 23/49/13 24/53/13
f 1/1/14 4/7/14 6/12/14 2/4/14
f 5/9/15 10/21/15 12/26/15 6/12/15
f 11/24/16 7/14/16 9/18/16 12/26/16
f 8/17/17 3/6/17 2/5/17 9/19/17
f 10/22/18 22/47/18 24/53/18 11/25/18
f 23/50/19 19/40/19 21/44/19 24/54/19
f 20/42/20 8/17/20 7/15/20 21/45/20
f 22/48/21 16/33/21 18/38/21 23/51/21
f 17/36/22 13/27/22 15/31/22 18/39/22
f 14/30/23 20/42/23 19/41/23 15/32/23
f 16/34/24 5/10/24 4/8/24 17/37/24
f 3/6/25 14/30/25 13/28/25 1/2/25
f 17/37/26 4/8/26 1/3/26 13/29/26
